<svg width="20" height="20" viewBox="0 0 20 20" fill="none" xmlns="http://www.w3.org/2000/svg">
<path d="M15.8284 10C15.8284 6.78068 13.2186 4.1709 9.99927 4.1709C6.77994 4.1709 4.17017 6.78068 4.17017 10C4.17017 10.9648 4.40425 11.8728 4.81769 12.6726C4.89417 12.8206 4.91734 12.9904 4.88386 13.1536L4.37723 15.6213L6.84563 15.1154L6.96873 15.1012C7.09228 15.0972 7.21563 15.1242 7.32665 15.1816C8.12642 15.595 9.03447 15.8291 9.99927 15.8291C13.2186 15.8291 15.8284 13.2193 15.8284 10ZM17.2856 10C17.2856 14.0242 14.0234 17.2864 9.99927 17.2864C8.89005 17.2864 7.8374 17.0372 6.89473 16.5926L3.58811 17.2714C3.34819 17.3207 3.09954 17.2461 2.92636 17.0729C2.75318 16.8997 2.6786 16.6511 2.72783 16.4112L3.40666 13.1038C2.96222 12.1613 2.71289 11.109 2.71289 10C2.71289 5.97585 5.97511 2.71362 9.99927 2.71362C14.0234 2.71362 17.2856 5.97585 17.2856 10Z" fill="#1A162F"/>
<path d="M9.27063 12.1867V7.81484C9.27063 7.41243 9.59685 7.08621 9.99927 7.08621C10.4017 7.08621 10.7279 7.41243 10.7279 7.81484V12.1867C10.7279 12.5891 10.4017 12.9153 9.99927 12.9153C9.59685 12.9153 9.27063 12.5891 9.27063 12.1867Z" fill="#1A162F"/>
<path d="M12.1852 9.27141C12.5876 9.27141 12.9138 9.59763 12.9138 10C12.9138 10.4025 12.5876 10.7287 12.1852 10.7287H7.81335C7.41094 10.7287 7.08472 10.4025 7.08472 10C7.08472 9.59763 7.41094 9.27141 7.81335 9.27141H12.1852Z" fill="#1A162F"/>
</svg>
