<svg width="18" height="18" viewBox="0 0 18 18" fill="none" xmlns="http://www.w3.org/2000/svg">
<path d="M14.25 5.39795C14.25 4.96637 14.2498 4.68731 14.2324 4.4751C14.2158 4.27196 14.1875 4.1964 14.1687 4.15943C14.0972 4.01912 13.9818 3.90435 13.8398 3.83203C13.8027 3.8131 13.7274 3.78421 13.5242 3.76758C13.3118 3.75022 13.0323 3.75 12.5999 3.75H6.75V14.25H12.6021C13.0334 14.25 13.3122 14.2497 13.5242 14.2324C13.7269 14.2159 13.8027 14.1876 13.8398 14.1687C13.9814 14.0966 14.097 13.9813 14.1687 13.8406C14.1876 13.8036 14.2158 13.7281 14.2324 13.5249C14.2498 13.3129 14.25 13.0343 14.25 12.6028V5.39795ZM3.75 12.5999C3.75 13.0323 3.75095 13.3117 3.76831 13.5242C3.78496 13.7278 3.81313 13.8035 3.83203 13.8406C3.90416 13.982 4.01881 14.0971 4.15943 14.1687C4.1964 14.1875 4.27196 14.2158 4.4751 14.2324C4.66206 14.2477 4.90072 14.2489 5.25 14.2493V3.75C4.90124 3.75034 4.66275 3.75305 4.47583 3.76831C4.27198 3.78497 4.19646 3.81316 4.15943 3.83203C4.01834 3.90393 3.90393 4.01834 3.83203 4.15943C3.81316 4.19646 3.78497 4.27198 3.76831 4.47583C3.75095 4.68843 3.75 4.96774 3.75 5.40015V12.5999ZM15.75 12.6028C15.75 13.0096 15.7508 13.3599 15.7273 13.6472C15.7031 13.9433 15.6491 14.2382 15.5046 14.5217C15.2887 14.9453 14.9438 15.2892 14.521 15.5046C14.2374 15.6491 13.9426 15.7031 13.6465 15.7273C13.3592 15.7508 13.0088 15.75 12.6021 15.75H5.39795C4.9911 15.75 4.64025 15.7508 4.35279 15.7273C4.05666 15.7031 3.76186 15.6491 3.47827 15.5046C3.05467 15.2888 2.71084 14.9445 2.49536 14.5217C2.35081 14.238 2.29694 13.9429 2.27271 13.6465C2.2492 13.3588 2.25 13.0075 2.25 12.5999V5.40015C2.25 4.99248 2.2492 4.64134 2.27271 4.35352C2.29694 4.05706 2.35078 3.76204 2.49536 3.47827C2.71106 3.055 3.055 2.71106 3.47827 2.49536C3.76204 2.35078 4.05706 2.29694 4.35352 2.27271C4.64134 2.2492 4.99248 2.25 5.40015 2.25H12.5999C13.0075 2.25 13.3589 2.24919 13.6465 2.27271C13.9429 2.29696 14.2374 2.35086 14.521 2.49536C14.9435 2.71064 15.2885 3.05419 15.5046 3.47827C15.6491 3.76186 15.7031 4.05666 15.7273 4.35279C15.7508 4.64025 15.75 4.9911 15.75 5.39795V12.6028Z" fill="#666F8D"/>
</svg>
