<svg width="24" height="24" viewBox="0 0 24 24" fill="none" xmlns="http://www.w3.org/2000/svg">
<path d="M6.14916 14.0937C6.28424 13.7287 6.80057 13.7287 6.93566 14.0937C7.44529 15.471 8.53119 16.5569 9.90846 17.0665C10.2735 17.2016 10.2735 17.7179 9.90846 17.853C8.53119 18.3627 7.44529 19.4485 6.93566 20.8258C6.80057 21.1909 6.28424 21.1909 6.14916 20.8258C5.63952 19.4485 4.55363 18.3627 3.17636 17.853C2.8113 17.7179 2.8113 17.2016 3.17636 17.0665C4.55363 16.5569 5.63952 15.471 6.14916 14.0937Z" fill="#1A162F"/>
<path d="M6.14916 14.0937C6.28424 13.7287 6.80057 13.7287 6.93566 14.0937C7.44529 15.471 8.53119 16.5569 9.90846 17.0665C10.2735 17.2016 10.2735 17.7179 9.90846 17.853L9.65343 17.9557C8.39762 18.5 7.4134 19.5347 6.93566 20.8258L6.90585 20.89C6.74856 21.1695 6.33625 21.1695 6.17897 20.89L6.14916 20.8258C5.67142 19.5347 4.6872 18.5 3.43138 17.9557L3.17636 17.853C2.8113 17.7179 2.8113 17.2016 3.17636 17.0665C4.55363 16.5569 5.63952 15.471 6.14916 14.0937ZM6.54241 16.9089C6.36935 17.1029 6.18542 17.2868 5.99147 17.4599C6.18525 17.6328 6.36948 17.8162 6.54241 18.0099C6.71519 17.8163 6.89886 17.6327 7.09246 17.4599C6.89869 17.2869 6.71532 17.1027 6.54241 16.9089Z" fill="#1A162F"/>
<path d="M4.85898 10.2711L4.92267 10.444C5.15926 11.0718 5.65064 11.5723 6.28761 11.8089L6.46051 11.8726C6.5879 11.9181 6.5879 12.091 6.46051 12.1365L6.28761 12.2002C5.65974 12.4368 5.15926 12.9282 4.92267 13.5651L4.85898 13.738C4.81348 13.8654 4.64059 13.8654 4.59509 13.738L4.53139 13.5651C4.2948 12.9373 3.80342 12.4368 3.16645 12.2002L2.99356 12.1365C2.86616 12.091 2.86616 11.9181 2.99356 11.8726L3.16645 11.8089C3.79432 11.5723 4.2948 11.0809 4.53139 10.444L4.59509 10.2711C4.64059 10.1437 4.81348 10.1437 4.85898 10.2711Z" fill="#1A162F"/>
<path d="M8.57382 7.77188C9.4622 6.88361 10.9023 6.88362 11.7907 7.77188L19.8701 15.8513C20.7584 16.7397 20.7584 18.1798 19.8701 19.0682L19.0704 19.868C18.182 20.7562 16.7419 20.7562 15.8535 19.868L7.77405 11.7885C6.88579 10.9001 6.88579 9.46003 7.77405 8.57165L8.57382 7.77188ZM10.5039 9.05862C10.3263 8.88108 10.0382 8.88108 9.86057 9.05862L9.0608 9.85839C8.88325 10.036 8.88325 10.3241 9.0608 10.5018L17.1403 18.5812C17.3179 18.7588 17.606 18.7588 17.7836 18.5812L18.5834 17.7815C18.7609 17.6038 18.7609 17.3157 18.5834 17.1381L10.5039 9.05862Z" fill="#1A162F"/>
<path d="M12.2688 9.53671C12.6241 9.18135 13.2001 9.18135 13.5555 9.53671C13.9109 9.89207 13.9109 10.4681 13.5555 10.8234L10.8256 13.5533C10.4703 13.9087 9.89424 13.9087 9.53888 13.5533C9.18352 13.198 9.18352 12.622 9.53888 12.2666L12.2688 9.53671Z" fill="#1A162F"/>
<path d="M19.2821 12C19.2821 9.99401 18.4656 8.16755 17.1485 6.85837L17.1441 6.85392C15.8349 5.53675 14.0084 4.72038 12.0024 4.72031C11.4451 4.72031 10.9006 4.78532 10.3771 4.89982L10.3762 4.89893C8.63412 5.296 7.12556 6.32264 6.117 7.72656C5.82385 8.13461 5.25527 8.22746 4.84714 7.9345C4.43907 7.64135 4.34531 7.07278 4.63831 6.66464C5.90322 4.90389 7.79497 3.61935 9.98078 3.12344L9.98789 3.12166C10.629 2.98142 11.3041 2.90039 12.0024 2.90039C14.5075 2.90046 16.7921 3.92046 18.4308 5.56718C20.08 7.20624 21.102 9.49277 21.102 12C21.102 12.5025 20.6945 12.9098 20.1921 12.91C19.6895 12.91 19.2821 12.5026 19.2821 12Z" fill="#1A162F"/>
</svg>
