<?xml version="1.0" standalone="no"?><!DOCTYPE svg PUBLIC "-//W3C//DTD SVG 1.1//EN" "http://www.w3.org/Graphics/SVG/1.1/DTD/svg11.dtd"><svg t="1770346998107" class="icon" viewBox="0 0 1024 1024" version="1.1" xmlns="http://www.w3.org/2000/svg" p-id="10650" xmlns:xlink="http://www.w3.org/1999/xlink" width="200" height="200"><path d="M32.256 970.656l66.016-241.024a464.192 464.192 0 0 1-62.08-232.512C36.224 240.64 244.96 32 501.44 32a462.4 462.4 0 0 1 329.088 136.416 462.24 462.24 0 0 1 136.192 329.056c-0.128 256.448-208.864 465.152-465.28 465.152h-0.224a465.088 465.088 0 0 1-222.336-56.64l-246.656 64.672zM385.152 302.656c-9.408-22.656-19.008-19.584-26.144-19.968-6.784-0.32-14.528-0.384-22.304-0.384-7.744 0-20.32 2.88-30.976 14.528-10.656 11.648-40.672 39.776-40.672 96.96 0 57.216 41.632 112.48 47.456 120.224 5.792 7.776 81.984 125.152 198.592 175.488 27.744 11.968 49.376 19.136 66.272 24.48 27.84 8.864 53.216 7.616 73.216 4.64 22.336-3.36 68.8-28.16 78.496-55.264 9.664-27.2 9.664-50.432 6.784-55.296-2.912-4.8-10.656-7.744-22.304-13.568-11.616-5.792-68.8-33.92-79.424-37.792-10.656-3.904-18.4-5.824-26.176 5.792-7.744 11.648-30.016 37.824-36.8 45.568-6.784 7.776-13.568 8.736-25.184 2.944-11.648-5.824-49.088-18.112-93.472-57.696-34.56-30.816-57.92-68.896-64.704-80.544-6.784-11.616-0.704-17.92 5.12-23.68 5.216-5.216 11.616-13.6 17.408-20.352 5.824-6.816 7.776-11.68 11.648-19.424 3.84-7.744 1.92-14.528-0.96-20.352-2.912-5.824-26.176-63.04-35.84-86.304z" fill="#3AC34C" p-id="10651"></path></svg>