<svg width="88" height="32" viewBox="0 0 88 32" fill="none" xmlns="http://www.w3.org/2000/svg">
<path d="M72.4644 12.6946H75.2621L77.3898 19.5555L79.3994 12.6946H82L78.7098 22.5299C77.9415 24.8102 76.9564 26 74.9074 26C74.08 26 73.3904 25.8215 73.0358 25.6232V23.4024C73.4889 23.5808 74.1194 23.7196 74.5922 23.7196C75.3606 23.7196 75.8137 23.3231 76.0107 22.7678L72.4644 12.6946Z" fill="#1A162F"/>
<path d="M68.8164 22.6687V8.43134H71.3579V22.6687H68.8164Z" fill="#1A162F"/>
<path d="M64.8182 12.6949H67.3203V14.8166H64.8182V19.1989C64.8182 20.2697 65.232 20.5473 66.1579 20.5473C66.6111 20.5473 67.0248 20.4481 67.4188 20.2697V22.431C67.0839 22.6492 66.3156 22.788 65.6851 22.788C63.38 22.788 62.2767 21.9155 62.2767 19.6946V14.8166H60.7597V14.2416L64.5227 10.4344H64.8182V12.6949Z" fill="#1A162F"/>
<path d="M60.2128 13.071L59.6414 15.272C58.617 14.697 57.9077 14.5978 57.2182 14.5978C56.2725 14.5978 55.7011 14.8754 55.7011 15.391C55.7011 15.8272 55.8981 16.0652 56.568 16.3229L58.4199 16.9971C59.7005 17.4532 60.5477 18.2464 60.5477 19.7336C60.5477 21.8156 58.9716 22.9459 56.568 22.9459C55.3465 22.9459 54.125 22.6286 53.396 22.1924V19.8525C54.4402 20.5466 55.5435 20.8242 56.6271 20.8242C57.5728 20.8242 58.0456 20.5664 58.0456 19.9319C58.0456 19.5551 57.8683 19.2775 57.0802 19.0197L55.3268 18.405C54.0462 17.9489 53.199 17.2153 53.199 15.5496C53.199 13.7253 54.7752 12.4563 57.5137 12.4563C58.4988 12.4563 59.3262 12.6149 60.2128 13.071Z" fill="#1A162F"/>
<path d="M51.6183 12.6946V22.6687H49.195L49.1753 21.0229C48.7615 22.173 47.7765 22.8472 46.2988 22.8472C44.2105 22.8472 42.989 21.4195 42.989 19.2581V12.6946H45.5305V18.6434C45.5305 19.7935 46.0821 20.547 47.2051 20.547C48.3872 20.547 49.0768 19.8133 49.0768 18.2666V12.6946H51.6183Z" fill="#1A162F"/>
<path d="M31.6657 22.6688V9.02629H37.0836C39.7433 9.02629 41.1619 10.5928 41.1619 12.5361C41.1619 13.9241 40.4723 15.0742 39.1917 15.5897C40.689 16.1251 41.5362 17.3545 41.5362 18.7822C41.5362 21.0229 39.9798 22.6688 37.1821 22.6688H31.6657ZM34.3057 11.3661V14.6181H36.8866C37.9702 14.6181 38.5021 13.9439 38.5021 13.012C38.5021 12.0602 37.9702 11.3661 36.8866 11.3661H34.3057ZM37.0048 16.8786H34.3057V20.3686H37.0048C38.1869 20.3686 38.778 19.6349 38.778 18.6236C38.778 17.5925 38.1869 16.8786 37.0048 16.8786Z" fill="#1A162F"/>
<path d="M15.8394 6C21.2736 6 25.6788 10.2809 25.6788 15.5616C25.6788 20.8424 21.2736 25.1233 15.8394 25.1233C10.4053 25.1233 6 20.8424 6 15.5616C6 10.2809 10.4053 6 15.8394 6ZM13.2842 8.87851C10.4931 9.88664 8.50458 12.4984 8.50458 15.5616C8.50458 16.896 8.8822 18.1446 9.53883 19.2124C9.88998 18.6892 10.4973 18.3432 11.1881 18.3432C12.2749 18.3432 13.1559 19.1994 13.1559 20.2555C13.1559 20.9011 12.8262 21.4713 12.3221 21.8176C13.3664 22.3733 14.5649 22.6894 15.8394 22.6894C19.8903 22.6894 23.1742 19.4982 23.1742 15.5616C23.1742 15.4319 23.1703 15.3029 23.1632 15.1749C22.6238 15.4989 22.0378 15.7455 21.423 15.9056C20.5961 16.1209 19.7336 16.176 18.8849 16.0674C18.0361 15.9588 17.2175 15.6888 16.476 15.2729C15.7346 14.8569 15.0849 14.303 14.5637 13.643C14.0425 12.983 13.6602 12.2296 13.4386 11.426C13.217 10.6224 13.1606 9.78429 13.2723 8.95949C13.2759 8.93247 13.2801 8.90546 13.2842 8.87851ZM18.8842 9.78578C17.9949 9.78578 17.2741 10.4863 17.2741 11.3504C17.2741 12.2145 17.995 12.915 18.8842 12.915C19.7734 12.915 20.4942 12.2145 20.4943 11.3504C20.4943 10.4863 19.7734 9.78578 18.8842 9.78578Z" fill="#1A162F"/>
</svg>