<svg width="32" height="32" viewBox="0 0 32 32" fill="none" xmlns="http://www.w3.org/2000/svg">
<path d="M15.8394 6C21.2736 6 25.6788 10.2809 25.6788 15.5616C25.6788 20.8424 21.2736 25.1233 15.8394 25.1233C10.4053 25.1233 6 20.8424 6 15.5616C6 10.2809 10.4053 6 15.8394 6ZM13.2842 8.87851C10.4931 9.88664 8.50458 12.4984 8.50458 15.5616C8.50458 16.896 8.8822 18.1446 9.53883 19.2124C9.88998 18.6892 10.4973 18.3432 11.1881 18.3432C12.2749 18.3432 13.1559 19.1994 13.1559 20.2555C13.1559 20.9011 12.8262 21.4713 12.3221 21.8176C13.3664 22.3733 14.5649 22.6894 15.8394 22.6894C19.8903 22.6894 23.1742 19.4982 23.1742 15.5616C23.1742 15.4319 23.1703 15.3029 23.1632 15.1749C22.6238 15.4989 22.0378 15.7455 21.423 15.9056C20.5961 16.1209 19.7336 16.176 18.8849 16.0674C18.0361 15.9588 17.2175 15.6888 16.476 15.2729C15.7346 14.8569 15.0849 14.303 14.5637 13.643C14.0425 12.983 13.6602 12.2296 13.4386 11.426C13.217 10.6224 13.1606 9.78429 13.2723 8.95949C13.2759 8.93247 13.2802 8.90546 13.2842 8.87851ZM18.8842 9.78578C17.9949 9.78578 17.2741 10.4863 17.2741 11.3504C17.2741 12.2145 17.995 12.915 18.8842 12.915C19.7734 12.915 20.4942 12.2145 20.4943 11.3504C20.4943 10.4863 19.7734 9.78578 18.8842 9.78578Z" fill="#1A162F"/>
</svg>
